{
  "accessors": [
    {
      "bufferView": 2,
      "componentType": 5126,
      "count": 62484,
      "max": [
        0.060914523899555206,
        0.9935004115104675,
        0.9935004115104675
      ],
      "min": [
        -0.1308361142873764,
        -0.9935004711151123,
        -0.9935004115104675
      ],
      "type": "VEC3"
    },
    {
      "bufferView": 2,
      "byteOffset": 749808,
      "componentType": 5126,
      "count": 62484,
      "max": [
        1.0,
        0.9999991655349731,
        0.9999991655349731
      ],
      "min": [
        -1.0,
        -0.9999992251396179,
        -0.9999991655349731
      ],
      "type": "VEC3"
    },
    {
      "bufferView": 1,
      "componentType": 5126,
      "count": 62484,
      "max": [
        0.9900000095367432,
        0.49000003933906555
      ],
      "min": [
        0.5099999904632568,
        0.01000000536441803
      ],
      "type": "VEC2"
    },
    {
      "bufferView": 0,
      "componentType": 5125,
      "count": 350208,
      "type": "SCALAR"
    },
    {
      "bufferView": 2,
      "byteOffset": 1499616,
      "componentType": 5126,
      "count": 34126,
      "max": [
        0.05356237292289734,
        0.7927305698394775,
        0.7927305698394775
      ],
      "min": [
        0.016683995723724365,
        -0.7927305698394775,
        -0.7927305698394775
      ],
      "type": "VEC3"
    },
    {
      "bufferView": 2,
      "byteOffset": 1909128,
      "componentType": 5126,
      "count": 34126,
      "max": [
        1.0,
        0.8736860752105713,
        0.873693585395813
      ],
      "min": [
        0.4864633083343506,
        -0.8736849427223206,
        -0.8736897110939026
      ],
      "type": "VEC3"
    },
    {
      "bufferView": 1,
      "byteOffset": 499872,
      "componentType": 5126,
      "count": 34126,
      "max": [
        0.9402551651000977,
        0.44025537371635437
      ],
      "min": [
        0.5597447752952576,
        0.059744685888290405
      ],
      "type": "VEC2"
    },
    {
      "bufferView": 0,
      "byteOffset": 1400832,
      "componentType": 5125,
      "count": 196608,
      "type": "SCALAR"
    },
    {
      "bufferView": 2,
      "byteOffset": 2318640,
      "componentType": 5126,
      "count": 26840,
      "max": [
        0.11568709462881088,
        0.11568707972764969,
        0.07697965949773788
      ],
      "min": [
        -0.11568707972764969,
        -0.11568709462881088,
        -0.12175669521093369
      ],
      "type": "VEC3"
    },
    {
      "bufferView": 2,
      "byteOffset": 2640720,
      "componentType": 5126,
      "count": 26840,
      "max": [
        0.9999989867210388,
        0.9999989867210388,
        1.0
      ],
      "min": [
        -0.9999983906745911,
        -0.9999983906745911,
        -0.9974063634872437
      ],
      "type": "VEC3"
    },
    {
      "bufferView": 1,
      "byteOffset": 772880,
      "componentType": 5126,
      "count": 26840,
      "max": [
        1.0000001192092896,
        0.5000001192092896
      ],
      "min": [
        0.0,
        0.0
      ],
      "type": "VEC2"
    },
    {
      "bufferView": 0,
      "byteOffset": 2187264,
      "componentType": 5125,
      "count": 144855,
      "type": "SCALAR"
    },
    {
      "bufferView": 2,
      "byteOffset": 2962800,
      "componentType": 5126,
      "count": 30278,
      "max": [
        0.04497908800840378,
        0.04497988894581795,
        -0.4836310148239136
      ],
      "min": [
        -0.04497882351279259,
        -0.044978026300668716,
        -0.7287784814834595
      ],
      "type": "VEC3"
    },
    {
      "bufferView": 2,
      "byteOffset": 3326136,
      "componentType": 5126,
      "count": 30278,
      "max": [
        0.9999993443489075,
        0.9999993443489075,
        0.9999344944953918
      ],
      "min": [
        -0.9999992847442627,
        -0.9999993443489075,
        -0.999832034111023
      ],
      "type": "VEC3"
    },
    {
      "bufferView": 1,
      "byteOffset": 987600,
      "componentType": 5126,
      "count": 30278,
      "max": [
        1.0000001192092896,
        1.0000001192092896
      ],
      "min": [
        0.0,
        0.09358803927898407
      ],
      "type": "VEC2"
    },
    {
      "bufferView": 0,
      "byteOffset": 2766684,
      "componentType": 5125,
      "count": 144930,
      "type": "SCALAR"
    },
    {
      "bufferView": 2,
      "byteOffset": 3689472,
      "componentType": 5126,
      "count": 29441,
      "max": [
        0.044622790068387985,
        0.04462359473109245,
        0.06976494193077087
      ],
      "min": [
        -0.044622525572776794,
        -0.044621724635362625,
        -0.4837619662284851
      ],
      "type": "VEC3"
    },
    {
      "bufferView": 2,
      "byteOffset": 4042764,
      "componentType": 5126,
      "count": 29441,
      "max": [
        0.9999990463256836,
        0.9999991059303284,
        0.9255242347717285
      ],
      "min": [
        -0.9999990463256836,
        -0.9999991059303284,
        -0.9939324855804443
      ],
      "type": "VEC3"
    },
    {
      "bufferView": 1,
      "byteOffset": 1229824,
      "componentType": 5126,
      "count": 29441,
      "max": [
        1.0000001192092896,
        0.6653686761856079
      ],
      "min": [
        0.0,
        0.4999999403953552
      ],
      "type": "VEC2"
    },
    {
      "bufferView": 0,
      "byteOffset": 3346404,
      "componentType": 5125,
      "count": 143610,
      "type": "SCALAR"
    }
  ],
  "asset": {
    "extras": {
      "author": "AyoubBani (https://sketchfab.com/AyoubBani)",
      "license": "CC-BY-4.0 (http://creativecommons.org/licenses/by/4.0/)",
      "source": "https://sketchfab.com/3d-models/game-bar-target-arrow-03e07087107944f8957571f8ce4bcaa4",
      "title": "Game Bar Target Arrow"
    },
    "generator": "Sketchfab-12.97.0",
    "version": "2.0"
  },
  "bufferViews": [
    {
      "buffer": 0,
      "byteLength": 3920844,
      "name": "floatBufferViews",
      "target": 34963
    },
    {
      "buffer": 0,
      "byteLength": 1465352,
      "byteOffset": 3920844,
      "byteStride": 8,
      "name": "floatBufferViews",
      "target": 34962
    },
    {
      "buffer": 0,
      "byteLength": 4396056,
      "byteOffset": 5386196,
      "byteStride": 12,
      "name": "floatBufferViews",
      "target": 34962
    }
  ],
  "buffers": [
    {
      "byteLength": 9782252,
      "uri": "scene.bin"
    }
  ],
  "materials": [
    {
      "doubleSided": true,
      "name": "arrow_red",
      "pbrMetallicRoughness": {
        "baseColorFactor": [
          0.890006,
          0.05227810000000005,
          0.048698800000000056,
          1.0
        ],
        "metallicFactor": 0.0,
        "roughnessFactor": 0.5
      }
    },
    {
      "doubleSided": true,
      "name": "target_white",
      "pbrMetallicRoughness": {
        "metallicFactor": 0.0,
        "roughnessFactor": 0.5
      }
    },
    {
      "doubleSided": true,
      "name": "Gold",
      "pbrMetallicRoughness": {
        "baseColorFactor": [
          0.646833,
          0.479686,
          0.281321,
          1.0
        ],
        "roughnessFactor": 0.4
      }
    },
    {
      "doubleSided": true,
      "name": "Material.002",
      "pbrMetallicRoughness": {
        "baseColorFactor": [
          0.006523,
          0.006523,
          0.006523,
          1.0
        ],
        "metallicFactor": 0.0,
        "roughnessFactor": 0.5
      }
    }
  ],
  "meshes": [
    {
      "name": "Cylinder_arrow red_0",
      "primitives": [
        {
          "attributes": {
            "NORMAL": 1,
            "POSITION": 0,
            "TEXCOORD_0": 2
          },
          "indices": 3,
          "material": 0,
          "mode": 4
        }
      ]
    },
    {
      "name": "Cylinder_target white_0",
      "primitives": [
        {
          "attributes": {
            "NORMAL": 5,
            "POSITION": 4,
            "TEXCOORD_0": 6
          },
          "indices": 7,
          "material": 1,
          "mode": 4
        }
      ]
    },
    {
      "name": "Cylinder.001_arrow red_0",
      "primitives": [
        {
          "attributes": {
            "NORMAL": 9,
            "POSITION": 8,
            "TEXCOORD_0": 10
          },
          "indices": 11,
          "material": 0,
          "mode": 4
        }
      ]
    },
    {
      "name": "Cylinder.001_Gold_0",
      "primitives": [
        {
          "attributes": {
            "NORMAL": 13,
            "POSITION": 12,
            "TEXCOORD_0": 14
          },
          "indices": 15,
          "material": 2,
          "mode": 4
        }
      ]
    },
    {
      "name": "Cylinder.001_Material.002_0",
      "primitives": [
        {
          "attributes": {
            "NORMAL": 17,
            "POSITION": 16,
            "TEXCOORD_0": 18
          },
          "indices": 19,
          "material": 3,
          "mode": 4
        }
      ]
    }
  ],
  "nodes": [
    {
      "children": [
        1
      ],
      "matrix": [
        1.0,
        0.0,
        0.0,
        0.0,
        0.0,
        2.220446049250313e-16,
        -1.0,
        0.0,
        0.0,
        1.0,
        2.220446049250313e-16,
        0.0,
        0.0,
        0.0,
        0.0,
        1.0
      ],
      "name": "Sketchfab_model"
    },
    {
      "children": [
        2
      ],
      "matrix": [
        0.009999999776482582,
        0.0,
        0.0,
        0.0,
        0.0,
        0.0,
        0.009999999776482582,
        0.0,
        0.0,
        -0.009999999776482582,
        0.0,
        0.0,
        0.0,
        0.0,
        0.0,
        1.0
      ],
      "name": "7fefb2abad8347e5af7fff08415178fe.fbx"
    },
    {
      "children": [
        3,
        6
      ],
      "name": "RootNode"
    },
    {
      "children": [
        4,
        5
      ],
      "matrix": [
        100.0,
        0.0,
        0.0,
        0.0,
        0.0,
        -1.629206793918314e-05,
        -99.99999999999868,
        0.0,
        0.0,
        99.99999999999868,
        -1.629206793918314e-05,
        0.0,
        7.223543643951416,
        -9.63038132795191e-07,
        1.4716217719978886e-06,
        1.0
      ],
      "name": "Cylinder"
    },
    {
      "mesh": 0,
      "name": "Cylinder_arrow red_0"
    },
    {
      "mesh": 1,
      "name": "Cylinder_target white_0"
    },
    {
      "children": [
        7,
        8,
        9
      ],
      "matrix": [
        2.5478678721323192e-05,
        0.0,
        130.85638427734125,
        0.0,
        1.9758764311010786e-05,
        -130.85638427734224,
        -3.847173450270626e-12,
        0.0,
        130.85638427733977,
        1.9758764311011158e-05,
        -2.5478678721323192e-05,
        0.0,
        101.75404357910156,
        0.020678451284766197,
        -0.0367327444255352,
        1.0
      ],
      "name": "Cylinder.001"
    },
    {
      "mesh": 2,
      "name": "Cylinder.001_arrow red_0"
    },
    {
      "mesh": 3,
      "name": "Cylinder.001_Gold_0"
    },
    {
      "mesh": 4,
      "name": "Cylinder.001_Material.002_0"
    }
  ],
  "scene": 0,
  "scenes": [
    {
      "name": "Sketchfab_Scene",
      "nodes": [
        0
      ]
    }
  ]
}
